<svg width="300" height="300" xmlns="http://www.w3.org/2000/svg">
 <title>icon</title>

 <g>
  <title>Layer 1</title>
  <rect id="svg_27" height="54.28563" width="77.71417" y="21.61879" x="40.47729" stroke="#000" fill="#fff"/>
  <rect id="svg_28" height="69.14275" width="93.14271" y="40.4759" x="18.76304" stroke="#000" fill="#fff"/>
  <rect id="svg_29" height="87.99986" width="107.42841" y="28.47592" x="94.76292" stroke="#000" fill="#fff"/>
  <rect id="svg_30" height="71.99989" width="125.71409" y="14.19023" x="136.47715" stroke="#000" fill="#fff"/>
  <rect stroke="#000" id="svg_31" height="80.5713" width="60.57133" y="90.76154" x="83.9058" fill="#fff"/>
  <rect id="svg_32" height="105.1427" width="57.14277" y="67.90443" x="159.33425" stroke="#000" fill="#fff"/>
  <rect id="svg_33" height="63.42847" width="95.99985" y="149.61859" x="125.04859" stroke="#000" fill="#fff"/>
  <rect id="svg_34" height="68.57132" width="121.14267" y="189.0471" x="28.47731" stroke="#000" fill="#fff"/>
  <rect id="svg_35" height="81.71416" width="116.57125" y="162.76143" x="115.90575" stroke="#000" fill="#fff"/>
  <rect id="svg_36" height="102.28556" width="83.99987" y="113.04722" x="178.7628" stroke="#000" fill="#fff"/>
  <rect stroke="#000" id="svg_37" height="103.99984" width="69.71418" y="38.76162" x="215.33416" fill="#fff"/>
  <rect id="svg_38" height="72.57132" width="78.28559" y="102.76152" x="31.33445" stroke="#000" fill="#fff"/>
  <rect id="svg_39" height="92.57129" width="62.85705" y="142.76146" x="71.33439" stroke="#000" fill="#fff"/>
  <rect id="svg_40" height="68.57132" width="44.57136" y="198.76137" x="161.61996" stroke="#000" fill="#fff"/>
  <rect stroke="#000" id="svg_41" height="98.28556" width="56.57134" y="172.4757" x="218.76273" fill="#fff"/>
  <rect id="svg_42" height="93.14271" width="46.28564" y="126.19006" x="11.33448" stroke="#000" fill="#fff"/>
  <rect stroke="#000" id="svg_43" height="45.71421" width="87.42844" y="225.61848" x="15.33447" fill="#fff"/>
 </g>
</svg>