<svg width="120" height="120" xmlns="http://www.w3.org/2000/svg">

 <g>
  <title>Layer 1</title>
  <path id="svg_1" d="m26.66723,14.2076c-52.78685,24.59015 0.32787,-31.14752 -8.52458,-0.32787c-8.85245,30.81965 64.91799,-28.1967 88.52454,-1.63934c23.60654,26.55736 -50.81964,74.09832 -38.36063,28.85244c12.45901,-45.24587 43.27866,-8.52458 31.14752,26.55736c-12.13114,35.08195 -8.52458,66.22947 12.13114,36.39342c20.65573,-29.83605 -39.67211,-7.21311 -39.34424,-23.27867c0.32787,-16.06556 -34.42621,-25.90162 -26.22949,-15.7377c8.19672,10.16393 15.7377,-36.39342 -17.04917,-15.40983c-32.78687,20.98359 8.52458,80.65569 -19.67212,63.60652c-28.1967,-17.04917 45.57374,-11.4754 25.24589,-33.11473c-20.32786,-21.63933 24.91802,-62.95078 -11.58527,-50.27315" stroke="#ffffaa" fill="#56ffff"/>
 </g>
</svg>